<?xml version="1.0" encoding="UTF-8" standalone="no"?>
<!-- Created with Inkscape (http://www.inkscape.org/) -->

<svg
   width="128"
   height="128"
   viewBox="0 0 128 128"
   version="1.1"
   id="svg1"
   inkscape:version="1.3.2 (091e20e, 2023-11-25, custom)"
   sodipodi:docname="Rotate.svg"
   xmlns:inkscape="http://www.inkscape.org/namespaces/inkscape"
   xmlns:sodipodi="http://sodipodi.sourceforge.net/DTD/sodipodi-0.dtd"
   xmlns="http://www.w3.org/2000/svg"
   xmlns:svg="http://www.w3.org/2000/svg">
  <sodipodi:namedview
     id="namedview1"
     pagecolor="#ffffff"
     bordercolor="#000000"
     borderopacity="0.25"
     inkscape:showpageshadow="2"
     inkscape:pageopacity="0.0"
     inkscape:pagecheckerboard="true"
     inkscape:deskcolor="#d1d1d1"
     inkscape:document-units="px"
     inkscape:zoom="4"
     inkscape:cx="24.125"
     inkscape:cy="75.875"
     inkscape:window-width="1920"
     inkscape:window-height="1009"
     inkscape:window-x="-8"
     inkscape:window-y="-8"
     inkscape:window-maximized="1"
     inkscape:current-layer="layer1" />
  <defs
     id="defs1" />
  <g
     inkscape:label="Layer 1"
     inkscape:groupmode="layer"
     id="layer1">
    <path
       style="fill:#ffffff;fill-opacity:1;stroke:#000000;stroke-width:0;stroke-linecap:round;stroke-linejoin:round"
       d="M 29.230974,77.07936 53.714261,69.078084 75.889128,46.100424 49.726059,44.111905 c 0,0 4.627196,-21.365072 24.166531,-21.481088 19.258345,-0.114346 36.79916,21.243848 31.53004,43.788811 C 101.29704,84.071767 98.268204,101.22151 65.686669,104.55596 28.679802,108.3433 22.953297,96.094757 19.620141,93.56643 16.286985,91.038102 4.3995425,92.788142 3.1661821,98.159903 1.9328217,103.53166 13.983572,133.04868 71.676728,126.02061 113.51386,120.92408 124.77725,88.624089 126.66966,71.433121 132.87825,15.033438 103.39529,-1.859749 68.356352,1.2600161 28.248443,4.8311084 25.44449,40.898954 25.44449,40.898954 L 0.4993351,37.100696 10.67799,58.6005 Z"
       id="path1"
       sodipodi:nodetypes="ccccssszzssscccc" />
  </g>
</svg>
