<?xml version="1.0" encoding="UTF-8" standalone="no"?>
<!-- Created with Inkscape (http://www.inkscape.org/) -->

<svg
   width="128"
   height="128"
   viewBox="0 0 128 128"
   version="1.1"
   id="svg1"
   inkscape:version="1.3.2 (091e20e, 2023-11-25, custom)"
   sodipodi:docname="Swirl.svg"
   xmlns:inkscape="http://www.inkscape.org/namespaces/inkscape"
   xmlns:sodipodi="http://sodipodi.sourceforge.net/DTD/sodipodi-0.dtd"
   xmlns="http://www.w3.org/2000/svg"
   xmlns:svg="http://www.w3.org/2000/svg">
  <sodipodi:namedview
     id="namedview1"
     pagecolor="#ffffff"
     bordercolor="#000000"
     borderopacity="0.25"
     inkscape:showpageshadow="2"
     inkscape:pageopacity="0.0"
     inkscape:pagecheckerboard="true"
     inkscape:deskcolor="#d1d1d1"
     inkscape:document-units="px"
     inkscape:zoom="4.1373683"
     inkscape:cx="56.799391"
     inkscape:cy="67.79672"
     inkscape:window-width="1920"
     inkscape:window-height="1009"
     inkscape:window-x="-8"
     inkscape:window-y="-8"
     inkscape:window-maximized="1"
     inkscape:current-layer="layer1" />
  <defs
     id="defs1" />
  <g
     inkscape:label="Layer 1"
     inkscape:groupmode="layer"
     id="layer1">
    <path
       sodipodi:type="spiral"
       style="fill:none;fill-rule:evenodd;stroke:#ffffff;stroke-width:10;stroke-linecap:round;stroke-dasharray:none;stroke-opacity:1"
       id="path1"
       sodipodi:cx="55.349194"
       sodipodi:cy="57.76619"
       sodipodi:expansion="1"
       sodipodi:revolution="3"
       sodipodi:radius="54.371651"
       sodipodi:argument="-18.587757"
       sodipodi:t0="0"
       d="m 55.349194,57.76619 c 2.633218,0.705567 0.348046,3.897628 -1.172699,4.376582 -4.121127,1.297937 -7.409698,-3.041897 -7.580466,-6.72198 -0.305466,-6.582807 6.158716,-11.106744 12.271262,-10.78435 8.970406,0.473126 14.876818,9.304612 13.988232,17.820544 C 71.671179,73.807383 60.396426,81.132801 49.485698,79.649102 35.755661,77.782019 26.996371,64.031847 29.089699,50.729995 31.625,34.619671 47.867094,24.418832 63.558087,27.130112 82.049378,30.325262 93.696298,49.068871 90.361853,67.147782 86.512105,88.0206 65.260914,101.11652 44.794902,97.155432 21.540119,92.654592 6.9932019,68.891734 11.583369,46.039199 16.732842,20.402109 43.010249,4.4027647 68.248883,9.6237823 96.26855,15.420101 113.72138,44.214168 107.86818,71.838578"
       transform="translate(4.1318061,10.75111)" />
  </g>
</svg>
