<?xml version="1.0" encoding="UTF-8" standalone="no"?>
<!-- Created with Inkscape (http://www.inkscape.org/) -->

<svg
   width="128"
   height="128"
   viewBox="0 0 128 128"
   version="1.1"
   id="svg1"
   inkscape:version="1.3.2 (091e20e, 2023-11-25, custom)"
   sodipodi:docname="RobFace_Hurt.svg"
   xmlns:inkscape="http://www.inkscape.org/namespaces/inkscape"
   xmlns:sodipodi="http://sodipodi.sourceforge.net/DTD/sodipodi-0.dtd"
   xmlns="http://www.w3.org/2000/svg"
   xmlns:svg="http://www.w3.org/2000/svg">
  <sodipodi:namedview
     id="namedview1"
     pagecolor="#ffffff"
     bordercolor="#000000"
     borderopacity="0.25"
     inkscape:showpageshadow="2"
     inkscape:pageopacity="0.0"
     inkscape:pagecheckerboard="true"
     inkscape:deskcolor="#d1d1d1"
     inkscape:document-units="px"
     inkscape:zoom="4.1373683"
     inkscape:cx="36.134081"
     inkscape:cy="75.047707"
     inkscape:window-width="1920"
     inkscape:window-height="1009"
     inkscape:window-x="-8"
     inkscape:window-y="-8"
     inkscape:window-maximized="1"
     inkscape:current-layer="layer1" />
  <defs
     id="defs1" />
  <g
     inkscape:label="Layer 1"
     inkscape:groupmode="layer"
     id="layer1">
    <path
       sodipodi:type="spiral"
       style="fill:none;fill-rule:evenodd;stroke:#ffffff;stroke-linecap:round;stroke-opacity:1"
       id="path2"
       sodipodi:cx="49.790104"
       sodipodi:cy="59.458088"
       sodipodi:expansion="1"
       sodipodi:revolution="3"
       sodipodi:radius="7.9283342"
       sodipodi:argument="-16.623064"
       sodipodi:t0="0"
       d="m 49.790104,59.458088 c -0.242369,0.315079 -0.544297,-0.171259 -0.523682,-0.402833 0.05586,-0.627549 0.824264,-0.827487 1.329347,-0.644532 0.903475,0.327264 1.15087,1.450846 0.765382,2.255862 -0.56572,1.181395 -2.085428,1.48246 -3.182377,0.886232 -1.462061,-0.794677 -1.817463,-2.722786 -1.007082,-4.108892 1.019782,-1.744272 3.361451,-2.154214 5.035407,-1.127931 2.027385,1.242966 2.491976,4.000849 1.248781,5.961922 -1.465061,2.311056 -4.640703,2.830371 -6.888436,1.369631 -2.595098,-1.686482 -3.169189,-5.280862 -1.490481,-7.814952 1.907454,-2.879394 5.921234,-3.508302 8.741466,-1.611331 3.163874,2.128115 3.84763,6.561764 1.732181,9.667982 -2.34855,3.44849 -7.202411,4.187119 -10.594496,1.85303"
       transform="matrix(2.3774311,0,0,2.3774311,-89.341908,-84.991686)" />
    <path
       sodipodi:type="spiral"
       style="fill:none;fill-rule:evenodd;stroke:#ffffff;paint-order:normal;stroke-linecap:round;stroke-opacity:1"
       id="path3"
       sodipodi:cx="81.936142"
       sodipodi:cy="59.095535"
       sodipodi:expansion="1"
       sodipodi:revolution="3"
       sodipodi:radius="7.7116928"
       sodipodi:argument="-19.858431"
       sodipodi:t0="0"
       d="m 81.936142,59.095535 c 0.206013,-0.327197 0.542696,0.116274 0.543824,0.342408 0.0031,0.612808 -0.722853,0.876412 -1.228639,0.74524 -0.904733,-0.234636 -1.246645,-1.300181 -0.946657,-2.11487 0.440244,-1.19559 1.884512,-1.625554 3.001102,-1.148074 1.48824,0.636405 2.00802,2.471219 1.34949,3.887334 -0.828693,1.782036 -3.059032,2.392299 -4.773566,1.550906 -2.076529,-1.019039 -2.777623,-3.647463 -1.752322,-5.659797 1.208281,-2.371466 4.236279,-3.163602 6.546029,-1.953739 2.666698,1.396835 3.550018,4.825351 2.155155,7.432261 -1.584931,2.962136 -5.414603,3.93674 -8.318492,2.356572 -3.257725,-1.77271 -4.323684,-6.003987 -2.557988,-9.204724 1.960257,-3.553425 6.59347,-4.710795 10.090955,-2.759405"
       transform="matrix(2.3774311,0,0,2.3774311,-94.513524,-80.682006)" />
    <path
       style="fill:none;stroke:#ffffff;stroke-width:2.37743;stroke-linecap:round;stroke-linejoin:round;stroke-dasharray:none;stroke-opacity:1"
       d="m 27.829672,89.768221 16.490271,-11.958238 16.588385,9.611 17.475298,-7.431397 16.480525,7.77447"
       id="path4"
       sodipodi:nodetypes="ccccc" />
  </g>
</svg>
