<?xml version="1.0" encoding="UTF-8" standalone="no"?>
<!-- Created with Inkscape (http://www.inkscape.org/) -->

<svg
   width="1000"
   height="1000"
   viewBox="0 0 1000 1000"
   version="1.1"
   id="svg1"
   inkscape:version="1.3.2 (091e20e, 2023-11-25, custom)"
   sodipodi:docname="Arm.svg"
   xmlns:inkscape="http://www.inkscape.org/namespaces/inkscape"
   xmlns:sodipodi="http://sodipodi.sourceforge.net/DTD/sodipodi-0.dtd"
   xmlns="http://www.w3.org/2000/svg"
   xmlns:svg="http://www.w3.org/2000/svg">
  <sodipodi:namedview
     id="namedview1"
     pagecolor="#ffffff"
     bordercolor="#000000"
     borderopacity="0.25"
     inkscape:showpageshadow="2"
     inkscape:pageopacity="0.0"
     inkscape:pagecheckerboard="true"
     inkscape:deskcolor="#d1d1d1"
     inkscape:document-units="px"
     inkscape:zoom="0.51717103"
     inkscape:cx="426.35799"
     inkscape:cy="610.04963"
     inkscape:window-width="1920"
     inkscape:window-height="1009"
     inkscape:window-x="-8"
     inkscape:window-y="-8"
     inkscape:window-maximized="1"
     inkscape:current-layer="layer1" />
  <defs
     id="defs1">
    <inkscape:path-effect
       effect="fillet_chamfer"
       id="path-effect4"
       is_visible="true"
       lpeversion="1"
       nodesatellites_param="F,0,0,1,0,50,0,1 @ F,0,0,1,0,50,0,1 @ F,0,0,1,0,50,0,1 @ F,0,0,1,0,50,0,1"
       radius="50"
       unit="px"
       method="auto"
       mode="F"
       chamfer_steps="1"
       flexible="false"
       use_knot_distance="true"
       apply_no_radius="true"
       apply_with_radius="true"
       only_selected="false"
       hide_knots="false" />
    <inkscape:path-effect
       effect="fillet_chamfer"
       id="path-effect2"
       is_visible="true"
       lpeversion="1"
       nodesatellites_param="F,0,0,1,0,50,0,1 @ F,0,0,1,0,50,0,1 @ F,0,0,1,0,50,0,1 @ F,0,0,1,0,50,0,1"
       radius="50"
       unit="px"
       method="auto"
       mode="F"
       chamfer_steps="1"
       flexible="false"
       use_knot_distance="true"
       apply_no_radius="true"
       apply_with_radius="true"
       only_selected="false"
       hide_knots="false" />
  </defs>
  <g
     inkscape:label="Layer 1"
     inkscape:groupmode="layer"
     id="layer1">
    <rect
       style="fill:#3f3f3f;fill-opacity:1;stroke-width:1.84249;stroke-linecap:round;stroke-linejoin:round"
       id="rect1"
       width="1000"
       height="940"
       x="0"
       y="30" />
    <rect
       style="fill:#282828;fill-opacity:1;stroke-width:1.17147;stroke-linecap:round;stroke-linejoin:round"
       id="rect4"
       width="400"
       height="950"
       x="300"
       y="25" />
    <path
       style="fill:#000000;fill-opacity:1;stroke:none;stroke-width:10;stroke-linecap:round;stroke-linejoin:round;stroke-dasharray:none;stroke-opacity:1"
       id="rect2"
       width="222.36357"
       height="1001.6029"
       x="361.58252"
       y="-1.9335963"
       inkscape:path-effect="#path-effect2"
       sodipodi:type="rect"
       d="m 411.58252,-1.9335963 h 122.36357 a 50,50 45 0 1 50,50.0000003 V 949.66931 a 50,50 135 0 1 -50,50 H 411.58252 a 50,50 45 0 1 -50,-50 V 48.066404 a 50,50 135 0 1 50,-50.0000003 z"
       transform="matrix(1.1242849,0,0,0.99839966,-312.77177,1.9305018)" />
    <path
       style="fill:#000000;fill-opacity:1;stroke:none;stroke-width:10;stroke-linecap:round;stroke-linejoin:round;stroke-dasharray:none;stroke-opacity:1"
       id="path2"
       width="222.36357"
       height="1001.6029"
       x="361.58252"
       y="-1.9335963"
       inkscape:path-effect="#path-effect4"
       sodipodi:type="rect"
       d="m 411.58252,-1.9335963 h 122.36357 a 50,50 45 0 1 50,50.0000003 V 949.66931 a 50,50 135 0 1 -50,50 H 411.58252 a 50,50 45 0 1 -50,-50 V 48.066404 a 50,50 135 0 1 50,-50.0000003 z"
       transform="matrix(1.1242849,0,0,0.99839966,155.97823,1.9305018)" />
  </g>
</svg>
