<?xml version="1.0" encoding="UTF-8" standalone="no"?>
<!-- Created with Inkscape (http://www.inkscape.org/) -->

<svg
   version="1.1"
   id="svg1"
   width="2048"
   height="2048"
   viewBox="0 0 2048 2048"
   sodipodi:docname="BoxTexture.svg"
   inkscape:export-filename="box.png"
   inkscape:export-xdpi="96"
   inkscape:export-ydpi="96"
   inkscape:version="1.3.2 (091e20e, 2023-11-25, custom)"
   xmlns:inkscape="http://www.inkscape.org/namespaces/inkscape"
   xmlns:sodipodi="http://sodipodi.sourceforge.net/DTD/sodipodi-0.dtd"
   xmlns="http://www.w3.org/2000/svg"
   xmlns:svg="http://www.w3.org/2000/svg">
  <defs
     id="defs1" />
  <sodipodi:namedview
     id="namedview1"
     pagecolor="#d39369"
     bordercolor="#000000"
     borderopacity="0.25"
     inkscape:showpageshadow="2"
     inkscape:pageopacity="0.0"
     inkscape:pagecheckerboard="0"
     inkscape:deskcolor="#d1d1d1"
     inkscape:export-bgcolor="#d18f6300"
     inkscape:zoom="0.19848633"
     inkscape:cx="481.14145"
     inkscape:cy="778.39114"
     inkscape:window-width="1920"
     inkscape:window-height="1009"
     inkscape:window-x="-8"
     inkscape:window-y="-8"
     inkscape:window-maximized="1"
     inkscape:current-layer="g1" />
  <g
     inkscape:groupmode="layer"
     inkscape:label="Image"
     id="g1">
    <path
       id="rect1"
       style="opacity:0.175439;fill:#ffffff;stroke-linecap:round;stroke-linejoin:round"
       d="m 494.99631,1718.0024 h 87.47181 l 243.14748,-2.8144 279.6488,6.3769 139.8109,-5.9209 94.4376,2.0435 -3.7262,16.8703 18.446,11.4099 -14.2298,16.361 10.7716,8.8597 -14.1163,11.2776 15.6933,14.6397 -13.7446,22.5982 8.4632,18.8988 -18.2632,6.6125 -80.6053,-3.4916 -277.4214,-0.071 -387.42145,3.5625 -88.67732,-4.4084 16.93112,-17.9919 -10.91948,-22.501 12.72873,-19.5209 -18.7958,-21.0166 15.69704,-18.2329 z"
       sodipodi:nodetypes="ccccccccccccccccccccccccc" />
    <text
       xml:space="preserve"
       style="font-style:normal;font-variant:normal;font-weight:normal;font-stretch:normal;font-size:105.724px;font-family:'Agency FB';-inkscape-font-specification:'Agency FB';text-align:center;text-anchor:middle;opacity:0.10380117;fill:#000000;fill-opacity:1;stroke-width:1.41594;stroke-linecap:round;stroke-linejoin:round"
       x="-1023.0162"
       y="-507.73355"
       id="text1"
       transform="scale(-1)"><tspan
         sodipodi:role="line"
         id="tspan1"
         x="-1023.0162"
         y="-507.73355"
         style="font-weight:bold;stroke-width:1.41594">This Way Up</tspan></text>
    <path
       style="opacity:0.10380117;fill:#000000;fill-opacity:1;stroke-width:1.41594;stroke-linecap:round;stroke-linejoin:round"
       d="m 857.12246,667.48523 2.89539,77.24181 3.79247,31.99314 -52.61114,1.78344 27.72412,53.87862 33.80414,33.50934 46.6207,-40.94539 35.417,-49.11772 -60.6365,0.89171 6.7727,-48.40417 2.1444,-61.27665 -11.8102,-5.28324 -23.8498,-0.23876 z"
       id="path1"
       sodipodi:nodetypes="cccccccccccccc" />
    <path
       style="opacity:0.10380117;fill:#000000;fill-opacity:1;stroke-width:1.47962;stroke-linecap:round;stroke-linejoin:round"
       d="m 1127.1723,667.28745 1.7663,59.25665 0.5612,46.8307 -51.5833,4.15002 23.9817,56.92183 39.5936,31.1261 42.8628,-40.91147 37.4079,-49.01371 -55.5734,-3.28621 5.9948,-59.5726 0.087,-47.74537 -10.9722,-8.17092 -25.0192,0.003 z"
       id="path2"
       sodipodi:nodetypes="cccccccccccccc" />
  </g>
</svg>
